# xmcd
# 
# Track frame offsets:
#     151
#     22559
#     41400
#     59801
#     81035
#     114847
#     144936
#     164488
#     173892
#     189143
# 
# Disc length: 2851
# 
# Revision: 0
# Processed by: cddbd v1.5.2PL0 Copyright (c) Steve Scherf et al.
# Submitted via: BonkEnc v1.0.8
# 
DISCID=710b210a
DTITLE=The Fundamental Soul Thunder - live im neodrom
DYEAR=0
DGENRE=Blues
TTITLE0=Fever
TTITLE1=It Makes You Happy
TTITLE2=Dreamin' As One
TTITLE3=Midnight Train To Georgia
TTITLE4=Me and Mrs. Jones
TTITLE5=You'd Never Not Look Down
TTITLE6=So White and So Funky
TTITLE7=Fly Away
TTITLE8=What A Wonderful World
TTITLE9=Dock Of The Bay
EXTD=
EXTT0=
EXTT1=
EXTT2=
EXTT3=
EXTT4=
EXTT5=
EXTT6=
EXTT7=
EXTT8=
EXTT9=
PLAYORDER=
